<svg width="908" height="179" viewBox="0 0 908 179" fill="none" xmlns="http://www.w3.org/2000/svg">
<g clip-path="url(#clip0_228_101)">
<path d="M80.511 -0.000348866C61.3918 0.663433 47.0799 9.40324 36.9677 26.385C36.9677 26.385 28.5685 41.5414 19.6167 57.5275C16.0249 63.944 12.3226 70.5818 9.11766 76.3899C6.35476 81.3683 3.86814 85.6829 2.65247 89.2231C-0.497241 98.516 8.13175e-05 110.962 8.13175e-05 110.962C8.13175e-05 148.908 30.6683 179 68.5753 179H240.428C266.51 179 287.673 157.814 287.673 131.705V129.935C287.673 103.826 266.565 82.6959 240.483 82.6406H109.632C113.113 99.0139 128.917 115.608 145.605 115.498C145.605 115.498 216.943 115.608 237.61 115.664C244.738 115.664 250.485 121.472 250.485 128.663C250.485 135.798 244.683 141.607 237.554 141.662L72.7749 141.773C58.8499 141.773 46.7484 133.309 41.1673 121.306C37.6861 113.894 36.3599 104.269 40.1174 96.9672L70.0673 43.2561C72.7197 39.6053 75.7036 37.1715 81.0636 37.1715H267.615C304.527 37.1715 317.513 18.5302 321.491 -0.0556641H80.511V-0.000348866Z" fill="white"/>
<path d="M487.486 0H391.282C372.605 0 355.862 10.1227 346.799 26.2194L316.076 80.5943C311.876 88.1171 309.334 96.3038 309.334 104.822V172.694C309.334 176.179 312.153 179 315.634 179H341.218C344.7 179 347.518 176.179 347.518 172.694V104.822C347.518 102.61 348.07 100.452 349.176 98.5717L383.601 37.2271H486.381C494.78 37.2271 501.577 44.0309 501.577 52.4388C501.577 60.8467 497.046 69.0887 486.602 69.0887H395.371C398.908 85.5173 414.767 102.112 431.731 102.001C431.731 102.001 480.966 102.112 501.577 102.167V172.639C501.577 176.124 504.395 178.945 507.877 178.945H532.411C535.892 178.945 538.711 176.124 538.711 172.639V50.6134C538.711 22.6239 515.723 0 487.321 0H487.486Z" fill="white"/>
<path d="M856.555 0H760.351C741.673 0 724.93 10.1227 715.868 26.2194L685.144 80.5943C680.945 88.1171 678.403 96.3038 678.403 104.822V172.694C678.403 176.179 681.221 179 684.702 179H710.287C713.768 179 716.586 176.179 716.586 172.694V104.822C716.586 102.61 717.139 100.452 718.244 98.5717L752.67 37.2271H855.45C863.849 37.2271 870.646 44.0309 870.646 52.4388C870.646 60.8467 866.114 69.0887 855.671 69.0887H764.44C767.976 85.5173 783.835 102.112 800.799 102.001C800.799 102.001 850.034 102.112 870.646 102.167V172.639C870.646 176.124 873.464 178.945 876.945 178.945H901.479C904.961 178.945 907.779 176.124 907.779 172.639V50.6134C907.779 22.6239 884.792 0 856.389 0H856.555Z" fill="white"/>
<path d="M591.537 0H566.947C563.468 0 560.648 2.82326 560.648 6.30593V172.694C560.648 176.177 563.468 179 566.947 179H591.537C595.016 179 597.837 176.177 597.837 172.694V6.30593C597.837 2.82326 595.016 0 591.537 0Z" fill="white"/>
<path d="M650.442 0H625.852C622.373 0 619.553 2.82326 619.553 6.30593V172.694C619.553 176.177 622.373 179 625.852 179H650.442C653.921 179 656.742 176.177 656.742 172.694V6.30593C656.742 2.82326 653.921 0 650.442 0Z" fill="white"/>
</g>
<defs>
<clipPath id="clip0_228_101">
<rect width="908" height="179" fill="white"/>
</clipPath>
</defs>
</svg>
