<svg xmlns="http://www.w3.org/2000/svg" height="34.82" viewBox="0 0 35.02 34.82" width="35.02"><g fill="#fff"><path d="m4.89 16.37c.09-.01.18-.03.27-.03.1 0 .19-.01.29-.01s.19 0 .29.01c.1 0 .18.02.26.03v3.85c-.15.07-.32.12-.5.17s-.37.08-.57.11-.4.05-.59.06c-.2.01-.38.02-.56.02-.59 0-1.11-.09-1.58-.27s-.86-.45-1.19-.8c-.32-.35-.57-.77-.74-1.27s-.26-1.06-.26-1.69.09-1.2.26-1.71c.18-.51.43-.94.75-1.3.33-.36.71-.63 1.16-.83.45-.19.95-.29 1.5-.29.42 0 .78.03 1.09.08s.59.13.83.23c-.01.17-.05.32-.09.47-.05.14-.1.29-.17.46-.2-.07-.43-.12-.66-.18-.24-.05-.54-.08-.89-.08-.39 0-.74.07-1.06.21s-.59.34-.81.61-.4.6-.52.99-.19.84-.19 1.34.06.97.19 1.34c.13.38.31.69.54.94s.51.44.83.56.67.18 1.06.18c.23 0 .44-.01.61-.04.18-.03.33-.06.45-.09v-3.08z"></path><path d="m16.37 12.56c.09-.01.18-.03.27-.03.1 0 .19-.01.29-.01s.19 0 .29.01c.1 0 .19.02.27.03v7.89c-.09.01-.18.03-.27.03s-.19.01-.29.01-.19 0-.29-.01c-.1 0-.19-.02-.27-.03z"></path><path d="m19.83 12.56c.09-.01.18-.03.27-.03.1 0 .19-.01.29-.01s.19 0 .29.01c.1 0 .19.02.27.03v7.89c-.09.01-.18.03-.27.03s-.19.01-.29.01-.19 0-.29-.01c-.1 0-.19-.02-.27-.03z"></path><path d="m12.53 17.66-1.21-4.03-1.2 4.03-.3.98-.54 1.82c-.1.01-.19.03-.29.03s-.19.01-.29.01-.2 0-.3-.01c-.1 0-.19-.02-.27-.03l2.57-7.89c.1-.01.2-.03.31-.03s.22-.01.34-.01c.1 0 .21 0 .32.01.11 0 .22.02.32.03l2.56 7.89c-.09.01-.19.03-.3.03s-.22.01-.32.01-.19 0-.29-.01c-.1 0-.19-.02-.28-.03l-.55-1.82-.3-.98z"></path><path d="m27.04 17.66-1.21-4.03-1.2 4.03-.3.98-.54 1.82c-.1.01-.19.03-.29.03s-.19.01-.29.01-.2 0-.3-.01c-.1 0-.19-.02-.27-.03l2.57-7.89c.1-.01.2-.03.31-.03s.22-.01.34-.01c.1 0 .21 0 .32.01.11 0 .22.02.32.03l2.56 7.89c-.09.01-.19.03-.3.03s-.22.01-.32.01-.19 0-.29-.01c-.1 0-.19-.02-.28-.03l-.55-1.82-.3-.98z"></path><path d="m21.11 0c7.14 2.45 12.28 9.17 12.28 17.09 0 8.76-6.28 16.07-14.62 17.73 9.09-.71 16.25-8.3 16.25-17.58 0-8.46-5.96-15.53-13.91-17.24z"></path></g></svg>